<?xml version="1.0" standalone="no"?>
<!DOCTYPE svg PUBLIC "-//W3C//DTD SVG 20010904//EN"
 "http://www.w3.org/TR/2001/REC-SVG-20010904/DTD/svg10.dtd">
<svg version="1.0" xmlns="http://www.w3.org/2000/svg"
 width="500.000000pt" height="500.000000pt" viewBox="0 0 500.000000 500.000000"
 preserveAspectRatio="xMidYMid meet">

<g transform="translate(0.000000,500.000000) scale(0.100000,-0.100000)"
fill="#000000" stroke="none">
<path d="M1180 2305 c-21 -25 -1 -31 23 -7 17 18 18 22 5 22 -8 0 -21 -7 -28
-15z"/>
<path d="M1040 2186 c0 -93 -5 -116 -26 -116 -8 0 -14 -7 -14 -15 0 -20 34
-19 54 1 23 22 23 214 1 214 -12 0 -15 -16 -15 -84z"/>
<path d="M1146 2254 c-12 -11 -16 -36 -16 -99 0 -90 11 -115 54 -115 39 0 46
18 46 117 0 81 -2 94 -19 103 -27 14 -47 13 -65 -6z m49 -100 c0 -64 -3 -79
-15 -79 -12 0 -16 16 -18 69 -3 76 2 100 21 93 8 -2 12 -28 12 -83z"/>
<path d="M1290 2253 c0 -10 7 -58 15 -108 8 -49 15 -93 15 -97 0 -5 11 -8 25
-8 17 0 26 7 30 23 10 45 33 202 29 206 -2 2 -10 1 -17 -2 -10 -4 -17 -29 -22
-75 -9 -95 -21 -107 -29 -30 -4 34 -10 73 -13 86 -6 26 -33 30 -33 5z"/>
<path d="M1460 2155 l0 -115 45 0 c33 0 45 4 45 15 0 10 -10 15 -30 15 -28 0
-30 3 -30 35 0 31 3 35 25 35 16 0 25 6 25 15 0 9 -9 15 -25 15 -22 0 -25 4
-25 35 0 32 2 35 30 35 20 0 30 5 30 15 0 11 -12 15 -45 15 l-45 0 0 -115z"/>
<path d="M1610 2155 c0 -96 3 -115 15 -115 12 0 15 16 16 78 0 83 6 80 34 -20
10 -37 21 -58 30 -58 12 0 15 20 15 115 0 96 -3 115 -15 115 -11 0 -15 -13
-16 -57 l-1 -58 -15 58 c-13 49 -18 57 -39 57 -24 0 -24 0 -24 -115z"/>
<path d="M1790 2155 l0 -115 45 0 c33 0 45 4 45 15 0 10 -10 15 -30 15 -28 0
-30 3 -30 35 0 31 3 35 25 35 16 0 25 6 25 15 0 9 -9 15 -25 15 -22 0 -25 4
-25 35 0 32 2 35 30 35 20 0 30 5 30 15 0 11 -12 15 -45 15 l-45 0 0 -115z"/>
<path d="M1952 2258 c-23 -23 -14 -74 23 -117 19 -24 32 -48 28 -56 -8 -21
-24 -18 -30 5 -7 28 -33 25 -33 -3 0 -45 52 -64 84 -31 25 25 19 59 -19 104
-19 23 -35 48 -35 55 0 22 22 29 35 12 15 -21 35 -22 35 -3 0 37 -61 61 -88
34z"/>
<path d="M2180 2155 l0 -115 50 0 c38 0 50 4 50 15 0 10 -10 15 -30 15 -16 0
-30 3 -31 8 -6 56 -4 62 18 62 14 0 23 6 23 15 0 8 -8 15 -19 15 -13 0 -20 9
-23 30 -5 36 -3 40 34 40 18 0 28 5 28 15 0 11 -12 15 -50 15 l-50 0 0 -115z"/>
<path d="M2330 2155 c0 -96 3 -115 15 -115 12 0 15 16 16 78 0 83 6 80 34 -20
10 -37 21 -58 30 -58 12 0 15 20 15 115 0 96 -3 115 -15 115 -11 0 -15 -13
-16 -57 l-1 -58 -15 58 c-13 49 -18 57 -39 57 -24 0 -24 0 -24 -115z"/>
<path d="M2590 2155 c0 -94 3 -115 15 -115 11 0 15 17 17 73 l3 72 13 -72 c9
-49 18 -73 28 -73 14 0 17 10 33 95 l9 50 1 -72 c1 -58 4 -73 16 -73 12 0 15
19 15 115 l0 115 -24 0 c-22 0 -25 -5 -32 -57 -11 -94 -20 -106 -28 -38 -10
86 -14 95 -42 95 l-24 0 0 -115z"/>
<path d="M2815 2254 c-13 -13 -15 -34 -13 -107 3 -90 3 -92 31 -101 51 -18 62
-1 65 105 2 79 0 96 -15 106 -23 18 -48 16 -68 -3z m50 -100 c0 -64 -3 -79
-15 -79 -12 0 -16 16 -18 69 -3 76 2 100 21 93 8 -2 12 -28 12 -83z"/>
<path d="M2960 2258 c0 -7 7 -56 15 -108 8 -52 15 -99 15 -103 0 -5 12 -7 27
-5 27 3 28 5 44 113 9 61 15 112 13 114 -2 2 -10 1 -17 -2 -10 -4 -17 -29 -22
-75 -9 -95 -21 -107 -29 -30 -10 87 -16 108 -32 108 -8 0 -14 -6 -14 -12z"/>
<path d="M3130 2155 c0 -96 3 -115 15 -115 12 0 15 19 15 115 0 96 -3 115 -15
115 -12 0 -15 -19 -15 -115z"/>
<path d="M3230 2156 c0 -96 3 -116 15 -116 11 0 15 14 16 58 l2 57 9 -57 c8
-45 14 -58 28 -58 13 0 19 14 27 68 l10 67 1 -67 c2 -53 5 -68 17 -68 12 0 15
19 15 115 0 115 0 115 -24 115 -22 0 -24 -5 -31 -65 -3 -36 -10 -65 -14 -65
-5 0 -12 28 -17 63 -8 53 -12 62 -31 65 -23 3 -23 2 -23 -112z"/>
<path d="M3440 2155 c0 -96 3 -115 15 -115 12 0 15 19 15 115 0 96 -3 115 -15
115 -12 0 -15 -19 -15 -115z"/>
<path d="M3530 2155 l0 -115 50 0 c38 0 50 4 50 15 0 10 -10 15 -30 15 -28 0
-30 3 -30 35 0 28 4 35 20 35 11 0 20 7 20 15 0 8 -8 15 -19 15 -13 0 -20 9
-23 30 -5 36 -3 40 34 40 18 0 28 5 28 15 0 11 -12 15 -50 15 l-50 0 0 -115z"/>
<path d="M3690 2155 c0 -96 3 -115 15 -115 12 0 15 15 16 73 1 77 1 78 30 -35
7 -28 15 -38 29 -38 19 0 20 7 20 115 0 96 -3 115 -15 115 -12 0 -15 -14 -16
-62 0 -67 -8 -62 -29 20 -8 31 -16 42 -30 42 -19 0 -20 -7 -20 -115z"/>
<path d="M3850 2256 c0 -7 9 -16 20 -19 18 -5 20 -14 20 -101 0 -79 3 -96 15
-96 12 0 15 18 15 100 0 93 1 100 20 100 11 0 20 7 20 15 0 12 -13 15 -55 15
-40 0 -55 -4 -55 -14z"/>
<path d="M4026 2254 c-12 -11 -16 -36 -16 -99 0 -90 11 -115 54 -115 39 0 46
18 46 117 0 81 -2 94 -19 103 -27 14 -47 13 -65 -6z m49 -100 c0 -64 -3 -79
-15 -79 -12 0 -16 16 -18 69 -3 76 2 100 21 93 8 -2 12 -28 12 -83z"/>
<path d="M1920 1865 c0 -43 4 -75 10 -75 6 0 10 26 11 58 l1 57 21 -57 c12
-32 25 -58 29 -58 4 0 17 28 30 63 l23 62 6 -65 6 -65 1 78 c2 95 -11 98 -44
11 -25 -65 -20 -67 -55 29 -22 63 -39 47 -39 -38z"/>
<path d="M2585 1924 c-21 -21 -13 -29 13 -13 21 13 52 7 52 -11 0 -6 -18 -28
-40 -50 -22 -22 -40 -44 -40 -50 0 -5 22 -10 50 -10 28 0 50 5 50 10 0 6 -16
10 -35 10 -42 0 -44 10 -6 37 34 26 45 58 24 78 -19 20 -48 19 -68 -1z"/>
<path d="M2706 1924 c-12 -11 -13 -20 -6 -34 7 -13 7 -21 0 -25 -18 -11 -11
-54 11 -65 45 -25 94 15 70 57 -6 11 -6 24 0 35 11 20 -13 48 -41 48 -10 0
-26 -7 -34 -16z m54 -9 c15 -18 5 -35 -21 -35 -24 0 -37 29 -18 41 19 12 25
11 39 -6z m-6 -51 c20 -8 21 -38 1 -54 -12 -10 -18 -10 -30 0 -18 15 -20 46
-2 53 6 3 13 6 14 6 1 1 8 -2 17 -5z"/>
<path d="M2898 1929 c-10 -5 -18 -15 -18 -21 0 -7 5 -6 15 2 13 11 15 5 15
-43 0 -48 -3 -56 -22 -62 -22 -8 -22 -8 5 -12 15 -2 39 -2 55 0 26 4 26 4 5
12 -21 7 -23 14 -23 71 0 66 -3 71 -32 53z"/>
<path d="M3001 1926 c-7 -8 -11 -27 -9 -43 3 -25 7 -28 41 -28 42 0 41 1 26
-27 -9 -16 -17 -19 -42 -14 -30 6 -31 5 -15 -10 53 -54 114 61 65 124 -13 16
-52 15 -66 -2z m63 -23 c8 -21 -17 -48 -38 -40 -9 4 -16 18 -16 32 0 20 5 25
24 25 13 0 27 -8 30 -17z"/>
<path d="M2218 1920 c-2 -6 -1 -36 2 -68 4 -44 9 -58 23 -60 9 -2 17 1 17 7 0
6 -4 11 -10 11 -5 0 -10 20 -10 45 0 25 5 45 11 45 6 0 4 7 -5 15 -17 18 -23
19 -28 5z"/>
<path d="M2110 1901 c-8 -6 -11 -13 -7 -17 3 -4 13 -1 22 6 12 10 18 10 30 0
23 -19 18 -30 -14 -30 -36 0 -59 -25 -44 -48 13 -22 42 -27 57 -12 8 9 6 11
-12 5 -26 -8 -44 21 -21 36 23 15 52 11 45 -6 -8 -21 3 -45 21 -45 11 0 13 3
5 13 -6 7 -12 33 -14 57 -3 40 -6 45 -28 48 -14 1 -32 -2 -40 -7z"/>
<path d="M2286 1894 c-31 -31 -11 -104 29 -104 21 0 45 11 45 21 0 6 -9 5 -21
-1 -15 -9 -24 -8 -35 1 -27 22 -16 39 26 39 28 0 40 4 40 14 0 20 -28 46 -50
46 -10 0 -26 -7 -34 -16z m52 -6 c19 -19 14 -28 -18 -28 -16 0 -30 4 -30 8 0
9 21 32 30 32 3 0 11 -5 18 -12z"/>
<path d="M2406 1894 c-9 -8 -16 -28 -16 -44 0 -52 50 -78 84 -44 34 33 10 104
-34 104 -10 0 -26 -7 -34 -16z m52 -6 c31 -31 0 -105 -33 -78 -25 21 -14 90
15 90 3 0 11 -5 18 -12z"/>
<path d="M2820 1900 c0 -5 5 -10 10 -10 6 0 10 5 10 10 0 6 -4 10 -10 10 -5 0
-10 -4 -10 -10z"/>
<path d="M2820 1800 c0 -5 5 -10 10 -10 6 0 10 5 10 10 0 6 -4 10 -10 10 -5 0
-10 -4 -10 -10z"/>
</g>
</svg>
